<svg xmlns="http://www.w3.org/2000/svg" xmlns:xlink="http://www.w3.org/1999/xlink" xmlns:lucid="lucid" width="740" height="820"><g transform="translate(-540 -80)" lucid:page-tab-id="mFJR00ttm~9K"><path d="M560 106a6 6 0 0 1 6-6h688a6 6 0 0 1 6 6v768a6 6 0 0 1-6 6H566a6 6 0 0 1-6-6z" fill-opacity="0"/><path d="M596.58 100h30.58m15.28 0h30.58m15.3 0h30.57m15.28 0h30.58m15.28 0h30.58m15.3 0h30.57m15.28 0h30.58m15.28 0h30.58m15.3 0h30.57m15.28 0h30.58m15.28 0h30.58m15.3 0h30.57m15.28 0h30.58m15.28 0h30.58m15.3 0H1254l.94.07.9.22.88.35.8.5.72.6.6.72.5.8.37.88.23.9.07.95v15.06m0 15.06v30.12m0 15.05v30.1m0 15.07v30.12m0 15.05v30.12m0 15.05v30.12m0 15.06v30.12m0 15.06v30.1m0 15.07v30.12m0 15.06v30.12m0 15.06v30.12m0 15.06V618m0 15.06v30.12m0 15.06v30.1m0 15.07v30.13m0 15.06v30.1m0 15.06v30.12m0 15.06V874l-.07.94-.22.9-.35.88-.5.8-.6.72-.72.6-.8.5-.88.37-.9.23-.95.07h-15.3m-15.28 0h-30.58m-15.28 0h-30.58m-15.3 0h-30.57m-15.28 0h-30.58m-15.28 0h-30.58m-15.3 0h-30.57m-15.28 0h-30.58m-15.28 0h-30.58m-15.3 0h-30.57m-15.28 0h-30.58m-15.28 0h-30.58m-15.3 0h-30.57m-15.28 0h-30.58m-15.28 0h-30.58m-15.3 0H566l-.94-.07-.9-.22-.88-.35-.8-.5-.72-.6-.6-.72-.5-.8-.37-.88-.23-.9-.07-.95v-15.06m0-15.06v-30.12m0-15.05v-30.1m0-15.07V723.4m0-15.05v-30.12m0-15.05v-30.12m0-15.06v-30.12m0-15.06v-30.1m0-15.07v-30.12m0-15.06v-30.12m0-15.06v-30.12m0-15.06V362m0-15.06v-30.12m0-15.06v-30.1m0-15.07v-30.13m0-15.06v-30.1m0-15.06v-30.12m0-15.06V106l.07-.94.22-.9.35-.88.5-.8.6-.72.72-.6.8-.5.88-.37.9-.23.95-.07h15.3" stroke="#5e5e5e" stroke-width="3" fill="none"/><path d="M580 199a6 6 0 0 1 6-6h249.63a6 6 0 0 1 6 6V335.7a6 6 0 0 1-6 6H586a6 6 0 0 1-6-6z" stroke="#552cff" stroke-width="3" fill="#ded3ff"/><use xlink:href="#a" transform="matrix(1,0,0,1,585,198.0093976337048) translate(76.70987654320987 22.12152777777778)"/><use xlink:href="#b" transform="matrix(1,0,0,1,585,198.0093976337048) translate(63.11111111111118 52.343749999999986)"/><use xlink:href="#c" transform="matrix(1,0,0,1,585,198.0093976337048) translate(126 80.7881944444444)"/><use xlink:href="#d" transform="matrix(1,0,0,1,585,198.0093976337048) translate(2.6666666666667993 107.45486111111104)"/><use xlink:href="#e" transform="matrix(1,0,0,1,585,198.0093976337048) translate(72.97530864197536 107.45486111111104)"/><use xlink:href="#f" transform="matrix(1,0,0,1,585,198.0093976337048) translate(97.66666666666669 107.45486111111104)"/><use xlink:href="#g" transform="matrix(1,0,0,1,585,198.0093976337048) translate(151.98765432098762 107.45486111111104)"/><use xlink:href="#h" transform="matrix(1,0,0,1,585,198.0093976337048) translate(170.50617283950612 107.45486111111104)"/><use xlink:href="#i" transform="matrix(1,0,0,1,585,198.0093976337048) translate(223.46913580246903 107.45486111111104)"/><use xlink:href="#j" transform="matrix(1,0,0,1,585,198.0093976337048) translate(68.62345679012353 134.12152777777766)"/><path d="M580 688.38a6 6 0 0 1 6-6h249.63a6 6 0 0 1 6 6v136.67a6 6 0 0 1-6 6H586a6 6 0 0 1-6-6z" stroke="#0057d2" stroke-width="3" fill="#d1efff"/><use xlink:href="#k" transform="matrix(1,0,0,1,585,687.380321501857) translate(75.41358024691357 22.12152777777778)"/><use xlink:href="#l" transform="matrix(1,0,0,1,585,687.380321501857) translate(72.8518518518519 52.343749999999986)"/><use xlink:href="#m" transform="matrix(1,0,0,1,585,687.380321501857) translate(126 80.7881944444444)"/><use xlink:href="#n" transform="matrix(1,0,0,1,585,687.380321501857) translate(15.907407407407518 107.45486111111104)"/><use xlink:href="#o" transform="matrix(1,0,0,1,585,687.380321501857) translate(113.37654320987654 107.45486111111104)"/><use xlink:href="#p" transform="matrix(1,0,0,1,585,687.380321501857) translate(210.2283950617283 107.45486111111104)"/><use xlink:href="#q" transform="matrix(1,0,0,1,585,687.380321501857) translate(55.10493827160502 134.12152777777766)"/><use xlink:href="#r" transform="matrix(1,0,0,1,585,687.380321501857) translate(138.99382716049382 134.12152777777766)"/><path d="M960 686a6 6 0 0 1 6-6h249.63a6 6 0 0 1 6 6v136.67a6 6 0 0 1-6 6H966a6 6 0 0 1-6-6z" stroke="#0057d2" stroke-width="3" fill="#d1efff"/><use xlink:href="#s" transform="matrix(1,0,0,1,964.9999999999999,685) translate(75.41358024691357 22.12152777777778)"/><use xlink:href="#t" transform="matrix(1,0,0,1,964.9999999999999,685) translate(95.7777777777778 52.343749999999986)"/><use xlink:href="#m" transform="matrix(1,0,0,1,964.9999999999999,685) translate(126 80.7881944444444)"/><use xlink:href="#u" transform="matrix(1,0,0,1,964.9999999999999,685) translate(47.29629629629639 107.45486111111104)"/><use xlink:href="#v" transform="matrix(1,0,0,1,964.9999999999999,685) translate(143.037037037037 107.45486111111104)"/><use xlink:href="#w" transform="matrix(1,0,0,1,964.9999999999999,685) translate(161.55555555555551 107.45486111111104)"/><use xlink:href="#x" transform="matrix(1,0,0,1,964.9999999999999,685) translate(72.38888888888894 134.12152777777766)"/><path d="M960 199a6 6 0 0 1 6-6h249.63a6 6 0 0 1 6 6V335.7a6 6 0 0 1-6 6H966a6 6 0 0 1-6-6z" stroke="#552cff" stroke-width="3" fill="#ded3ff"/><g><use xlink:href="#a" transform="matrix(1,0,0,1,964.9999999999999,198.00939763370474) translate(76.70987654320987 22.12152777777778)"/><use xlink:href="#y" transform="matrix(1,0,0,1,964.9999999999999,198.00939763370474) translate(84.62962962962966 52.343749999999986)"/><use xlink:href="#c" transform="matrix(1,0,0,1,964.9999999999999,198.00939763370474) translate(126 80.7881944444444)"/><use xlink:href="#d" transform="matrix(1,0,0,1,964.9999999999999,198.00939763370474) translate(9.425925925926066 107.45486111111104)"/><use xlink:href="#e" transform="matrix(1,0,0,1,964.9999999999999,198.00939763370474) translate(79.73456790123463 107.45486111111104)"/><use xlink:href="#z" transform="matrix(1,0,0,1,964.9999999999999,198.00939763370474) translate(104.42592592592595 107.45486111111104)"/><use xlink:href="#A" transform="matrix(1,0,0,1,964.9999999999999,198.00939763370474) translate(192.01851851851845 107.45486111111104)"/><use xlink:href="#B" transform="matrix(1,0,0,1,964.9999999999999,198.00939763370474) translate(72.35802469135808 134.12152777777766)"/></g><path d="M1090.82 344.18V660" stroke="#5e5e5e" stroke-width="2" stroke-linejoin="round" fill="none"/><path d="M1091.82 344.2h-2v-1.02h2z" stroke="#5e5e5e" stroke-width=".05" fill="#5e5e5e"/><path d="M1090.82 675.26l-4.64-14.26h9.27z" stroke="#5e5e5e" stroke-width="2" fill="#5e5e5e"/><g><use xlink:href="#C" transform="matrix(1,0,0,1,1098.8163265141395,480.7246548702954) translate(0.004999999999999005 14.222222222222223)"/></g><path d="M710.82 344.18v318.2" stroke="#5e5e5e" stroke-width="2" stroke-linejoin="round" fill="none"/><path d="M711.82 344.2h-2v-1.02h2z" stroke="#5e5e5e" stroke-width=".05" fill="#5e5e5e"/><path d="M710.82 677.64l-4.64-14.26h9.27z" stroke="#5e5e5e" stroke-width="2" fill="#5e5e5e"/><g><use xlink:href="#D" transform="matrix(1,0,0,1,662.4170209599894,463.5768956106005) translate(0.004999999999999005 16.09375)"/></g><path d="M844.13 756.7H940" stroke="#5e5e5e" stroke-width="2" stroke-linejoin="round" fill="none"/><path d="M844.16 757.7h-1.03v-2h1.03z" stroke="#5e5e5e" stroke-width=".05" fill="#5e5e5e"/><path d="M955.26 756.7L941 761.36v-9.27z" stroke="#5e5e5e" stroke-width="2" fill="#5e5e5e"/><g><use xlink:href="#E" transform="matrix(1,0,0,1,846.1963040647717,691.3855298947096) translate(17.99545138888889 16.09375)"/><use xlink:href="#F" transform="matrix(1,0,0,1,846.1963040647717,691.3855298947096) translate(0.703784722222224 36.536458333333336)"/><use xlink:href="#G" transform="matrix(1,0,0,1,846.1963040647717,691.3855298947096) translate(5.643020833333336 36.536458333333336)"/><use xlink:href="#H" transform="matrix(1,0,0,1,846.1963040647717,691.3855298947096) translate(0.005000000000002558 56.97916666666667)"/><use xlink:href="#I" transform="matrix(1,0,0,1,846.1963040647717,691.3855298947096) translate(4.944236111111114 56.97916666666667)"/></g><path d="M560 106a6 6 0 0 1 6-6h188a6 6 0 0 1 6 6v48a6 6 0 0 1-6 6H566a6 6 0 0 1-6-6z" stroke="#000" stroke-opacity="0" stroke-width="3" fill="#fff" fill-opacity="0"/><g><use xlink:href="#J" transform="matrix(1,0,0,1,565,105) translate(12.592592592592638 38.68055555555554)"/></g><defs><path fill="#552cff" d="M142-25L97-88v-13l45-64h42c-9 30-32 46-45 71l45 63v6h-42zm-80 0L16-88v-13l46-64h41c-9 30-32 46-45 71l45 63v6H62" id="K"/><path fill="#552cff" d="M135-194c53 0 70 44 70 98 0 56-19 98-73 100-31 1-45-17-59-34 3 33 2 69 2 105H25l-1-265h48c2 10 0 23 3 31 11-24 29-35 60-35zM114-30c33 0 39-31 40-66 0-38-9-64-40-64-56 0-55 130 0 130" id="L"/><path fill="#552cff" d="M185-48c-13 30-37 53-82 52C43 2 14-33 14-96s30-98 90-98c62 0 83 45 84 108H66c0 31 8 55 39 56 18 0 30-7 34-22zm-45-69c5-46-57-63-70-21-2 6-4 13-4 21h74" id="M"/><path fill="#552cff" d="M135-150c-39-12-60 13-60 57V0H25l-1-190h47c2 13-1 29 3 40 6-28 27-53 61-41v41" id="N"/><path fill="#552cff" d="M137-138c1-29-70-34-71-4 15 46 118 7 119 86 1 83-164 76-172 9l43-7c4 19 20 25 44 25 33 8 57-30 24-41C81-84 22-81 20-136c-2-80 154-74 161-7" id="O"/><path fill="#552cff" d="M110-194c64 0 96 36 96 99 0 64-35 99-97 99-61 0-95-36-95-99 0-62 34-99 96-99zm-1 164c35 0 45-28 45-65 0-40-10-65-43-65-34 0-45 26-45 65 0 36 10 65 43 65" id="P"/><path fill="#552cff" d="M135-194c87-1 58 113 63 194h-50c-7-57 23-157-34-157-59 0-34 97-39 157H25l-1-190h47c2 12-1 28 3 38 12-26 28-41 61-42" id="Q"/><path fill="#552cff" d="M16-25v-6l45-63-44-65v-6h42l45 64v13L59-25H16zm81 0v-6l45-63-45-65v-6h42l45 64v13l-45 63H97" id="R"/><g id="a"><use transform="matrix(0.06172839506172839,0,0,0.06172839506172839,0,0)" xlink:href="#K"/><use transform="matrix(0.06172839506172839,0,0,0.06172839506172839,12.345679012345679,0)" xlink:href="#L"/><use transform="matrix(0.06172839506172839,0,0,0.06172839506172839,25.864197530864196,0)" xlink:href="#M"/><use transform="matrix(0.06172839506172839,0,0,0.06172839506172839,38.20987654320987,0)" xlink:href="#N"/><use transform="matrix(0.06172839506172839,0,0,0.06172839506172839,46.85185185185185,0)" xlink:href="#O"/><use transform="matrix(0.06172839506172839,0,0,0.06172839506172839,59.197530864197525,0)" xlink:href="#P"/><use transform="matrix(0.06172839506172839,0,0,0.06172839506172839,72.71604938271604,0)" xlink:href="#Q"/><use transform="matrix(0.06172839506172839,0,0,0.06172839506172839,86.23456790123456,0)" xlink:href="#R"/></g><path fill="#552cff" d="M24 0v-248h195v40H76v63h132v40H76v65h150V0H24" id="S"/><path fill="#552cff" d="M220-157c-53 9-28 100-34 157h-49v-107c1-27-5-49-29-50C55-147 81-57 75 0H25l-1-190h47c2 12-1 28 3 38 10-53 101-56 108 0 13-22 24-43 59-42 82 1 51 116 57 194h-49v-107c-1-25-5-48-29-50" id="T"/><path fill="#552cff" d="M25 0v-261h50V0H25" id="U"/><path fill="#552cff" d="M123 10C108 53 80 86 19 72V37c35 8 53-11 59-39L3-190h52l48 148c12-52 28-100 44-148h51" id="V"/><g id="b"><use transform="matrix(0.074074074074074,0,0,0.074074074074074,0,0)" xlink:href="#S"/><use transform="matrix(0.074074074074074,0,0,0.074074074074074,17.77777777777776,0)" xlink:href="#T"/><use transform="matrix(0.074074074074074,0,0,0.074074074074074,41.48148148148144,0)" xlink:href="#L"/><use transform="matrix(0.074074074074074,0,0,0.074074074074074,57.703703703703646,0)" xlink:href="#U"/><use transform="matrix(0.074074074074074,0,0,0.074074074074074,65.11111111111104,0)" xlink:href="#P"/><use transform="matrix(0.074074074074074,0,0,0.074074074074074,81.33333333333326,0)" xlink:href="#V"/><use transform="matrix(0.074074074074074,0,0,0.074074074074074,96.14814814814805,0)" xlink:href="#M"/><use transform="matrix(0.074074074074074,0,0,0.074074074074074,110.96296296296285,0)" xlink:href="#M"/></g><path fill="#552cff" d="M190 0L58-211 59 0H30v-248h39L202-35l-2-213h31V0h-41" id="W"/><path fill="#552cff" d="M100-194c63 0 86 42 84 106H49c0 40 14 67 53 68 26 1 43-12 49-29l28 8c-11 28-37 45-77 45C44 4 14-33 15-96c1-61 26-98 85-98zm52 81c6-60-76-77-97-28-3 7-6 17-6 28h103" id="X"/><path fill="#552cff" d="M85-194c31 0 48 13 60 33l-1-100h32l1 261h-30c-2-10 0-23-3-31C134-8 116 4 85 4 32 4 16-35 15-94c0-66 23-100 70-100zm9 24c-40 0-46 34-46 75 0 40 6 74 45 74 42 0 51-32 51-76 0-42-9-74-50-73" id="Y"/><path fill="#552cff" d="M135-143c-3-34-86-38-87 0 15 53 115 12 119 90S17 21 10-45l28-5c4 36 97 45 98 0-10-56-113-15-118-90-4-57 82-63 122-42 12 7 21 19 24 35" id="Z"/><g id="d"><use transform="matrix(0.06172839506172832,0,0,0.06172839506172832,0,0)" xlink:href="#W"/><use transform="matrix(0.06172839506172832,0,0,0.06172839506172832,15.987654320987636,0)" xlink:href="#X"/><use transform="matrix(0.06172839506172832,0,0,0.06172839506172832,28.3333333333333,0)" xlink:href="#X"/><use transform="matrix(0.06172839506172832,0,0,0.06172839506172832,40.67901234567896,0)" xlink:href="#Y"/><use transform="matrix(0.06172839506172832,0,0,0.06172839506172832,53.024691358024626,0)" xlink:href="#Z"/></g><path fill="#552cff" d="M59-47c-2 24 18 29 38 22v24C64 9 27 4 27-40v-127H5v-23h24l9-43h21v43h35v23H59v120" id="aa"/><path fill="#552cff" d="M100-194c62-1 85 37 85 99 1 63-27 99-86 99S16-35 15-95c0-66 28-99 85-99zM99-20c44 1 53-31 53-75 0-43-8-75-51-75s-53 32-53 75 10 74 51 75" id="ab"/><g id="e"><use transform="matrix(0.06172839506172832,0,0,0.06172839506172832,0,0)" xlink:href="#aa"/><use transform="matrix(0.06172839506172832,0,0,0.06172839506172832,6.172839506172832,0)" xlink:href="#ab"/></g><path fill="#552cff" d="M115-194c53 0 69 39 70 98 0 66-23 100-70 100C84 3 66-7 56-30L54 0H23l1-261h32v101c10-23 28-34 59-34zm-8 174c40 0 45-34 45-75 0-40-5-75-45-74-42 0-51 32-51 76 0 43 10 73 51 73" id="ac"/><path fill="#552cff" d="M143 0L79-87 56-68V0H24v-261h32v163l83-92h37l-77 82L181 0h-38" id="ad"/><g id="f"><use transform="matrix(0.06172839506172832,0,0,0.06172839506172832,0,0)" xlink:href="#ac"/><use transform="matrix(0.06172839506172832,0,0,0.06172839506172832,12.345679012345665,0)" xlink:href="#ab"/><use transform="matrix(0.06172839506172832,0,0,0.06172839506172832,24.69135802469133,0)" xlink:href="#ab"/><use transform="matrix(0.06172839506172832,0,0,0.06172839506172832,37.037037037036995,0)" xlink:href="#ad"/></g><path fill="#552cff" d="M141-36C126-15 110 5 73 4 37 3 15-17 15-53c-1-64 63-63 125-63 3-35-9-54-41-54-24 1-41 7-42 31l-33-3c5-37 33-52 76-52 45 0 72 20 72 64v82c-1 20 7 32 28 27v20c-31 9-61-2-59-35zM48-53c0 20 12 33 32 33 41-3 63-29 60-74-43 2-92-5-92 41" id="ae"/><use transform="matrix(0.06172839506172832,0,0,0.06172839506172832,0,0)" xlink:href="#ae" id="g"/><path fill="#552cff" d="M101-234c-31-9-42 10-38 44h38v23H63V0H32v-167H5v-23h27c-7-52 17-82 69-68v24" id="af"/><path fill="#552cff" d="M24 0v-261h32V0H24" id="ag"/><path fill="#552cff" d="M24-231v-30h32v30H24zM24 0v-190h32V0H24" id="ah"/><path fill="#552cff" d="M177-190C167-65 218 103 67 71c-23-6-38-20-44-43l32-5c15 47 100 32 89-28v-30C133-14 115 1 83 1 29 1 15-40 15-95c0-56 16-97 71-98 29-1 48 16 59 35 1-10 0-23 2-32h30zM94-22c36 0 50-32 50-73 0-42-14-75-50-75-39 0-46 34-46 75s6 73 46 73" id="ai"/><path fill="#552cff" d="M106-169C34-169 62-67 57 0H25v-261h32l-1 103c12-21 28-36 61-36 89 0 53 116 60 194h-32v-121c2-32-8-49-39-48" id="aj"/><g id="h"><use transform="matrix(0.06172839506172832,0,0,0.06172839506172832,0,0)" xlink:href="#af"/><use transform="matrix(0.06172839506172832,0,0,0.06172839506172832,6.172839506172832,0)" xlink:href="#ag"/><use transform="matrix(0.06172839506172832,0,0,0.06172839506172832,11.049382716049369,0)" xlink:href="#ah"/><use transform="matrix(0.06172839506172832,0,0,0.06172839506172832,15.925925925925908,0)" xlink:href="#ai"/><use transform="matrix(0.06172839506172832,0,0,0.06172839506172832,28.271604938271572,0)" xlink:href="#aj"/><use transform="matrix(0.06172839506172832,0,0,0.06172839506172832,40.617283950617235,0)" xlink:href="#aa"/></g><path fill="#552cff" d="M114-163C36-179 61-72 57 0H25l-1-190h30c1 12-1 29 2 39 6-27 23-49 58-41v29" id="ak"/><g id="i"><use transform="matrix(0.06172839506172832,0,0,0.06172839506172832,0,0)" xlink:href="#af"/><use transform="matrix(0.06172839506172832,0,0,0.06172839506172832,6.172839506172832,0)" xlink:href="#ab"/><use transform="matrix(0.06172839506172832,0,0,0.06172839506172832,18.518518518518498,0)" xlink:href="#ak"/></g><path fill="#552cff" d="M115-194c55 1 70 41 70 98S169 2 115 4C84 4 66-9 55-30l1 105H24l-1-265h31l2 30c10-21 28-34 59-34zm-8 174c40 0 45-34 45-75s-6-73-45-74c-42 0-51 32-51 76 0 43 10 73 51 73" id="al"/><path fill="#552cff" d="M117-194c89-4 53 116 60 194h-32v-121c0-31-8-49-39-48C34-167 62-67 57 0H25l-1-190h30c1 10-1 24 2 32 11-22 29-35 61-36" id="am"/><g id="j"><use transform="matrix(0.06172839506172832,0,0,0.06172839506172832,0,0)" xlink:href="#al"/><use transform="matrix(0.06172839506172832,0,0,0.06172839506172832,12.345679012345665,0)" xlink:href="#ae"/><use transform="matrix(0.06172839506172832,0,0,0.06172839506172832,24.69135802469133,0)" xlink:href="#Z"/><use transform="matrix(0.06172839506172832,0,0,0.06172839506172832,35.802469135802426,0)" xlink:href="#Z"/><use transform="matrix(0.06172839506172832,0,0,0.06172839506172832,46.913580246913526,0)" xlink:href="#X"/><use transform="matrix(0.06172839506172832,0,0,0.06172839506172832,59.25925925925919,0)" xlink:href="#am"/><use transform="matrix(0.06172839506172832,0,0,0.06172839506172832,71.60493827160485,0)" xlink:href="#ai"/><use transform="matrix(0.06172839506172832,0,0,0.06172839506172832,83.95061728395052,0)" xlink:href="#X"/><use transform="matrix(0.06172839506172832,0,0,0.06172839506172832,96.29629629629619,0)" xlink:href="#ak"/><use transform="matrix(0.06172839506172832,0,0,0.06172839506172832,103.64197530864186,0)" xlink:href="#Z"/></g><path fill="#0057d2" d="M142-25L97-88v-13l45-64h42c-9 30-32 46-45 71l45 63v6h-42zm-80 0L16-88v-13l46-64h41c-9 30-32 46-45 71l45 63v6H62" id="an"/><path fill="#0057d2" d="M137-138c1-29-70-34-71-4 15 46 118 7 119 86 1 83-164 76-172 9l43-7c4 19 20 25 44 25 33 8 57-30 24-41C81-84 22-81 20-136c-2-80 154-74 161-7" id="ao"/><path fill="#0057d2" d="M123 10C108 53 80 86 19 72V37c35 8 53-11 59-39L3-190h52l48 148c12-52 28-100 44-148h51" id="ap"/><path fill="#0057d2" d="M115-3C79 11 28 4 28-45v-112H4v-33h27l15-45h31v45h36v33H77v99c-1 23 16 31 38 25v30" id="aq"/><path fill="#0057d2" d="M185-48c-13 30-37 53-82 52C43 2 14-33 14-96s30-98 90-98c62 0 83 45 84 108H66c0 31 8 55 39 56 18 0 30-7 34-22zm-45-69c5-46-57-63-70-21-2 6-4 13-4 21h74" id="ar"/><path fill="#0057d2" d="M220-157c-53 9-28 100-34 157h-49v-107c1-27-5-49-29-50C55-147 81-57 75 0H25l-1-190h47c2 12-1 28 3 38 10-53 101-56 108 0 13-22 24-43 59-42 82 1 51 116 57 194h-49v-107c-1-25-5-48-29-50" id="as"/><path fill="#0057d2" d="M16-25v-6l45-63-44-65v-6h42l45 64v13L59-25H16zm81 0v-6l45-63-45-65v-6h42l45 64v13l-45 63H97" id="at"/><g id="k"><use transform="matrix(0.06172839506172839,0,0,0.06172839506172839,0,0)" xlink:href="#an"/><use transform="matrix(0.06172839506172839,0,0,0.06172839506172839,12.345679012345679,0)" xlink:href="#ao"/><use transform="matrix(0.06172839506172839,0,0,0.06172839506172839,24.691358024691358,0)" xlink:href="#ap"/><use transform="matrix(0.06172839506172839,0,0,0.06172839506172839,37.03703703703704,0)" xlink:href="#ao"/><use transform="matrix(0.06172839506172839,0,0,0.06172839506172839,49.382716049382715,0)" xlink:href="#aq"/><use transform="matrix(0.06172839506172839,0,0,0.06172839506172839,56.72839506172839,0)" xlink:href="#ar"/><use transform="matrix(0.06172839506172839,0,0,0.06172839506172839,69.07407407407408,0)" xlink:href="#as"/><use transform="matrix(0.06172839506172839,0,0,0.06172839506172839,88.82716049382717,0)" xlink:href="#at"/></g><path fill="#0057d2" d="M182-130c37 4 62 22 62 59C244 23 116-4 24 0v-248c84 5 203-23 205 63 0 31-19 50-47 55zM76-148c40-3 101 13 101-30 0-44-60-28-101-31v61zm0 110c48-3 116 14 116-37 0-48-69-32-116-35v72" id="au"/><path fill="#0057d2" d="M110-194c64 0 96 36 96 99 0 64-35 99-97 99-61 0-95-36-95-99 0-62 34-99 96-99zm-1 164c35 0 45-28 45-65 0-40-10-65-43-65-34 0-45 26-45 65 0 36 10 65 43 65" id="av"/><path fill="#0057d2" d="M147 0L96-86 75-71V0H25v-261h50v150l67-79h53l-66 74L201 0h-54" id="aw"/><path fill="#0057d2" d="M25-224v-37h50v37H25zM25 0v-190h50V0H25" id="ax"/><path fill="#0057d2" d="M135-194c87-1 58 113 63 194h-50c-7-57 23-157-34-157-59 0-34 97-39 157H25l-1-190h47c2 12-1 28 3 38 12-26 28-41 61-42" id="ay"/><path fill="#0057d2" d="M195-6C206 82 75 100 31 46c-4-6-6-13-8-21l49-6c3 16 16 24 34 25 40 0 42-37 40-79-11 22-30 35-61 35-53 0-70-43-70-97 0-56 18-96 73-97 30 0 46 14 59 34l2-30h47zm-90-29c32 0 41-27 41-63 0-35-9-62-40-62-32 0-39 29-40 63 0 36 9 62 39 62" id="az"/><g id="l"><use transform="matrix(0.074074074074074,0,0,0.074074074074074,0,0)" xlink:href="#au"/><use transform="matrix(0.074074074074074,0,0,0.074074074074074,19.185185185185166,0)" xlink:href="#av"/><use transform="matrix(0.074074074074074,0,0,0.074074074074074,35.407407407407376,0)" xlink:href="#av"/><use transform="matrix(0.074074074074074,0,0,0.074074074074074,51.629629629629584,0)" xlink:href="#aw"/><use transform="matrix(0.074074074074074,0,0,0.074074074074074,66.44444444444439,0)" xlink:href="#ax"/><use transform="matrix(0.074074074074074,0,0,0.074074074074074,73.85185185185179,0)" xlink:href="#ay"/><use transform="matrix(0.074074074074074,0,0,0.074074074074074,90.07407407407399,0)" xlink:href="#az"/></g><path fill="#0057d2" d="M240 0l2-218c-23 76-54 145-80 218h-23L58-218 59 0H30v-248h44l77 211c21-75 51-140 76-211h43V0h-30" id="aA"/><path fill="#0057d2" d="M141-36C126-15 110 5 73 4 37 3 15-17 15-53c-1-64 63-63 125-63 3-35-9-54-41-54-24 1-41 7-42 31l-33-3c5-37 33-52 76-52 45 0 72 20 72 64v82c-1 20 7 32 28 27v20c-31 9-61-2-59-35zM48-53c0 20 12 33 32 33 41-3 63-29 60-74-43 2-92-5-92 41" id="aB"/><path fill="#0057d2" d="M117-194c89-4 53 116 60 194h-32v-121c0-31-8-49-39-48C34-167 62-67 57 0H25l-1-190h30c1 10-1 24 2 32 11-22 29-35 61-36" id="aC"/><path fill="#0057d2" d="M177-190C167-65 218 103 67 71c-23-6-38-20-44-43l32-5c15 47 100 32 89-28v-30C133-14 115 1 83 1 29 1 15-40 15-95c0-56 16-97 71-98 29-1 48 16 59 35 1-10 0-23 2-32h30zM94-22c36 0 50-32 50-73 0-42-14-75-50-75-39 0-46 34-46 75s6 73 46 73" id="aD"/><path fill="#0057d2" d="M100-194c63 0 86 42 84 106H49c0 40 14 67 53 68 26 1 43-12 49-29l28 8c-11 28-37 45-77 45C44 4 14-33 15-96c1-61 26-98 85-98zm52 81c6-60-76-77-97-28-3 7-6 17-6 28h103" id="aE"/><path fill="#0057d2" d="M135-143c-3-34-86-38-87 0 15 53 115 12 119 90S17 21 10-45l28-5c4 36 97 45 98 0-10-56-113-15-118-90-4-57 82-63 122-42 12 7 21 19 24 35" id="aF"/><g id="n"><use transform="matrix(0.06172839506172832,0,0,0.06172839506172832,0,0)" xlink:href="#aA"/><use transform="matrix(0.06172839506172832,0,0,0.06172839506172832,18.45679012345677,0)" xlink:href="#aB"/><use transform="matrix(0.06172839506172832,0,0,0.06172839506172832,30.802469135802433,0)" xlink:href="#aC"/><use transform="matrix(0.06172839506172832,0,0,0.06172839506172832,43.148148148148096,0)" xlink:href="#aB"/><use transform="matrix(0.06172839506172832,0,0,0.06172839506172832,55.49382716049376,0)" xlink:href="#aD"/><use transform="matrix(0.06172839506172832,0,0,0.06172839506172832,67.83950617283942,0)" xlink:href="#aE"/><use transform="matrix(0.06172839506172832,0,0,0.06172839506172832,80.18518518518509,0)" xlink:href="#aF"/></g><path fill="#0057d2" d="M266 0h-40l-56-210L115 0H75L2-248h35L96-30l15-64 43-154h32l59 218 59-218h35" id="aG"/><path fill="#0057d2" d="M100-194c62-1 85 37 85 99 1 63-27 99-86 99S16-35 15-95c0-66 28-99 85-99zM99-20c44 1 53-31 53-75 0-43-8-75-51-75s-53 32-53 75 10 74 51 75" id="aH"/><path fill="#0057d2" d="M114-163C36-179 61-72 57 0H25l-1-190h30c1 12-1 29 2 39 6-27 23-49 58-41v29" id="aI"/><path fill="#0057d2" d="M143 0L79-87 56-68V0H24v-261h32v163l83-92h37l-77 82L181 0h-38" id="aJ"/><path fill="#0057d2" d="M101-234c-31-9-42 10-38 44h38v23H63V0H32v-167H5v-23h27c-7-52 17-82 69-68v24" id="aK"/><path fill="#0057d2" d="M24 0v-261h32V0H24" id="aL"/><path fill="#0057d2" d="M206 0h-36l-40-164L89 0H53L-1-190h32L70-26l43-164h34l41 164 42-164h31" id="aM"/><g id="o"><use transform="matrix(0.06172839506172832,0,0,0.06172839506172832,0,0)" xlink:href="#aG"/><use transform="matrix(0.06172839506172832,0,0,0.06172839506172832,20.493827160493804,0)" xlink:href="#aH"/><use transform="matrix(0.06172839506172832,0,0,0.06172839506172832,32.83950617283947,0)" xlink:href="#aI"/><use transform="matrix(0.06172839506172832,0,0,0.06172839506172832,40.18518518518514,0)" xlink:href="#aJ"/><use transform="matrix(0.06172839506172832,0,0,0.06172839506172832,51.29629629629624,0)" xlink:href="#aK"/><use transform="matrix(0.06172839506172832,0,0,0.06172839506172832,57.469135802469076,0)" xlink:href="#aL"/><use transform="matrix(0.06172839506172832,0,0,0.06172839506172832,62.34567901234561,0)" xlink:href="#aH"/><use transform="matrix(0.06172839506172832,0,0,0.06172839506172832,74.69135802469128,0)" xlink:href="#aM"/></g><g id="p"><use transform="matrix(0.06172839506172832,0,0,0.06172839506172832,0,0)" xlink:href="#aK"/><use transform="matrix(0.06172839506172832,0,0,0.06172839506172832,6.172839506172832,0)" xlink:href="#aH"/><use transform="matrix(0.06172839506172832,0,0,0.06172839506172832,18.518518518518498,0)" xlink:href="#aI"/></g><path fill="#0057d2" d="M115-194c53 0 69 39 70 98 0 66-23 100-70 100C84 3 66-7 56-30L54 0H23l1-261h32v101c10-23 28-34 59-34zm-8 174c40 0 45-34 45-75 0-40-5-75-45-74-42 0-51 32-51 76 0 43 10 73 51 73" id="aN"/><path fill="#0057d2" d="M24-231v-30h32v30H24zM24 0v-190h32V0H24" id="aO"/><g id="q"><use transform="matrix(0.06172839506172832,0,0,0.06172839506172832,0,0)" xlink:href="#aN"/><use transform="matrix(0.06172839506172832,0,0,0.06172839506172832,12.345679012345665,0)" xlink:href="#aH"/><use transform="matrix(0.06172839506172832,0,0,0.06172839506172832,24.69135802469133,0)" xlink:href="#aH"/><use transform="matrix(0.06172839506172832,0,0,0.06172839506172832,37.037037037036995,0)" xlink:href="#aJ"/><use transform="matrix(0.06172839506172832,0,0,0.06172839506172832,48.148148148148096,0)" xlink:href="#aO"/><use transform="matrix(0.06172839506172832,0,0,0.06172839506172832,53.02469135802463,0)" xlink:href="#aC"/><use transform="matrix(0.06172839506172832,0,0,0.06172839506172832,65.3703703703703,0)" xlink:href="#aD"/></g><path fill="#0057d2" d="M106-169C34-169 62-67 57 0H25v-261h32l-1 103c12-21 28-36 61-36 89 0 53 116 60 194h-32v-121c2-32-8-49-39-48" id="aP"/><path fill="#0057d2" d="M59-47c-2 24 18 29 38 22v24C64 9 27 4 27-40v-127H5v-23h24l9-43h21v43h35v23H59v120" id="aQ"/><g id="r"><use transform="matrix(0.06172839506172832,0,0,0.06172839506172832,0,0)" xlink:href="#aK"/><use transform="matrix(0.06172839506172832,0,0,0.06172839506172832,6.172839506172832,0)" xlink:href="#aL"/><use transform="matrix(0.06172839506172832,0,0,0.06172839506172832,11.049382716049369,0)" xlink:href="#aO"/><use transform="matrix(0.06172839506172832,0,0,0.06172839506172832,15.925925925925908,0)" xlink:href="#aD"/><use transform="matrix(0.06172839506172832,0,0,0.06172839506172832,28.271604938271572,0)" xlink:href="#aP"/><use transform="matrix(0.06172839506172832,0,0,0.06172839506172832,40.617283950617235,0)" xlink:href="#aQ"/><use transform="matrix(0.06172839506172832,0,0,0.06172839506172832,46.79012345679007,0)" xlink:href="#aF"/></g><g id="s"><use transform="matrix(0.06172839506172839,0,0,0.06172839506172839,0,0)" xlink:href="#an"/><use transform="matrix(0.06172839506172839,0,0,0.06172839506172839,12.345679012345679,0)" xlink:href="#ao"/><use transform="matrix(0.06172839506172839,0,0,0.06172839506172839,24.691358024691358,0)" xlink:href="#ap"/><use transform="matrix(0.06172839506172839,0,0,0.06172839506172839,37.03703703703704,0)" xlink:href="#ao"/><use transform="matrix(0.06172839506172839,0,0,0.06172839506172839,49.382716049382715,0)" xlink:href="#aq"/><use transform="matrix(0.06172839506172839,0,0,0.06172839506172839,56.72839506172839,0)" xlink:href="#ar"/><use transform="matrix(0.06172839506172839,0,0,0.06172839506172839,69.07407407407408,0)" xlink:href="#as"/><use transform="matrix(0.06172839506172839,0,0,0.06172839506172839,88.82716049382717,0)" xlink:href="#at"/></g><path fill="#0057d2" d="M199 0l-22-63H83L61 0H9l90-248h61L250 0h-51zm-33-102l-36-108c-10 38-24 72-36 108h72" id="aR"/><path fill="#0057d2" d="M85 4C-2 5 27-109 22-190h50c7 57-23 150 33 157 60-5 35-97 40-157h50l1 190h-47c-2-12 1-28-3-38-12 25-28 42-61 42" id="aS"/><path fill="#0057d2" d="M114-157C55-157 80-60 75 0H25v-261h50l-1 109c12-26 28-41 61-42 86-1 58 113 63 194h-50c-7-57 23-157-34-157" id="aT"/><g id="t"><use transform="matrix(0.074074074074074,0,0,0.074074074074074,0,0)" xlink:href="#aR"/><use transform="matrix(0.074074074074074,0,0,0.074074074074074,19.185185185185166,0)" xlink:href="#aS"/><use transform="matrix(0.074074074074074,0,0,0.074074074074074,35.407407407407376,0)" xlink:href="#aq"/><use transform="matrix(0.074074074074074,0,0,0.074074074074074,44.222222222222186,0)" xlink:href="#aT"/></g><path fill="#0057d2" d="M137 0h-34L2-248h35l83 218 83-218h36" id="aU"/><path fill="#0057d2" d="M85-194c31 0 48 13 60 33l-1-100h32l1 261h-30c-2-10 0-23-3-31C134-8 116 4 85 4 32 4 16-35 15-94c0-66 23-100 70-100zm9 24c-40 0-46 34-46 75 0 40 6 74 45 74 42 0 51-32 51-76 0-42-9-74-50-73" id="aV"/><g id="u"><use transform="matrix(0.06172839506172832,0,0,0.06172839506172832,0,0)" xlink:href="#aU"/><use transform="matrix(0.06172839506172832,0,0,0.06172839506172832,13.148148148148133,0)" xlink:href="#aB"/><use transform="matrix(0.06172839506172832,0,0,0.06172839506172832,25.493827160493797,0)" xlink:href="#aL"/><use transform="matrix(0.06172839506172832,0,0,0.06172839506172832,30.370370370370335,0)" xlink:href="#aO"/><use transform="matrix(0.06172839506172832,0,0,0.06172839506172832,35.24691358024687,0)" xlink:href="#aV"/><use transform="matrix(0.06172839506172832,0,0,0.06172839506172832,47.59259259259253,0)" xlink:href="#aB"/><use transform="matrix(0.06172839506172832,0,0,0.06172839506172832,59.938271604938194,0)" xlink:href="#aQ"/><use transform="matrix(0.06172839506172832,0,0,0.06172839506172832,66.11111111111103,0)" xlink:href="#aE"/><use transform="matrix(0.06172839506172832,0,0,0.06172839506172832,78.4567901234567,0)" xlink:href="#aF"/></g><use transform="matrix(0.06172839506172832,0,0,0.06172839506172832,0,0)" xlink:href="#aB" id="v"/><path fill="#0057d2" d="M84 4C-5 8 30-112 23-190h32v120c0 31 7 50 39 49 72-2 45-101 50-169h31l1 190h-30c-1-10 1-25-2-33-11 22-28 36-60 37" id="aW"/><g id="w"><use transform="matrix(0.06172839506172832,0,0,0.06172839506172832,0,0)" xlink:href="#aW"/><use transform="matrix(0.06172839506172832,0,0,0.06172839506172832,12.345679012345665,0)" xlink:href="#aF"/><use transform="matrix(0.06172839506172832,0,0,0.06172839506172832,23.456790123456763,0)" xlink:href="#aE"/><use transform="matrix(0.06172839506172832,0,0,0.06172839506172832,35.802469135802426,0)" xlink:href="#aI"/></g><path fill="#0057d2" d="M96-169c-40 0-48 33-48 73s9 75 48 75c24 0 41-14 43-38l32 2c-6 37-31 61-74 61-59 0-76-41-82-99-10-93 101-131 147-64 4 7 5 14 7 22l-32 3c-4-21-16-35-41-35" id="aX"/><g id="x"><use transform="matrix(0.06172839506172832,0,0,0.06172839506172832,0,0)" xlink:href="#aX"/><use transform="matrix(0.06172839506172832,0,0,0.06172839506172832,11.111111111111098,0)" xlink:href="#aI"/><use transform="matrix(0.06172839506172832,0,0,0.06172839506172832,18.45679012345677,0)" xlink:href="#aE"/><use transform="matrix(0.06172839506172832,0,0,0.06172839506172832,30.802469135802433,0)" xlink:href="#aV"/><use transform="matrix(0.06172839506172832,0,0,0.06172839506172832,43.148148148148096,0)" xlink:href="#aE"/><use transform="matrix(0.06172839506172832,0,0,0.06172839506172832,55.49382716049376,0)" xlink:href="#aC"/><use transform="matrix(0.06172839506172832,0,0,0.06172839506172832,67.83950617283942,0)" xlink:href="#aQ"/><use transform="matrix(0.06172839506172832,0,0,0.06172839506172832,74.01234567901226,0)" xlink:href="#aO"/><use transform="matrix(0.06172839506172832,0,0,0.06172839506172832,78.8888888888888,0)" xlink:href="#aB"/><use transform="matrix(0.06172839506172832,0,0,0.06172839506172832,91.23456790123447,0)" xlink:href="#aL"/><use transform="matrix(0.06172839506172832,0,0,0.06172839506172832,96.111111111111,0)" xlink:href="#aF"/></g><path fill="#552cff" d="M199 0l-22-63H83L61 0H9l90-248h61L250 0h-51zm-33-102l-36-108c-10 38-24 72-36 108h72" id="aY"/><path fill="#552cff" d="M88-194c31-1 46 15 58 34l-1-101h50l1 261h-48c-2-10 0-23-3-31C134-8 116 4 84 4 32 4 16-41 15-95c0-56 19-97 73-99zm17 164c33 0 40-30 41-66 1-37-9-64-41-64s-38 30-39 65c0 43 13 65 39 65" id="aZ"/><path fill="#552cff" d="M25-224v-37h50v37H25zM25 0v-190h50V0H25" id="ba"/><g id="y"><use transform="matrix(0.074074074074074,0,0,0.074074074074074,0,0)" xlink:href="#aY"/><use transform="matrix(0.074074074074074,0,0,0.074074074074074,19.185185185185166,0)" xlink:href="#aZ"/><use transform="matrix(0.074074074074074,0,0,0.074074074074074,35.407407407407376,0)" xlink:href="#T"/><use transform="matrix(0.074074074074074,0,0,0.074074074074074,59.11111111111106,0)" xlink:href="#ba"/><use transform="matrix(0.074074074074074,0,0,0.074074074074074,66.51851851851846,0)" xlink:href="#Q"/></g><g id="z"><use transform="matrix(0.06172839506172832,0,0,0.06172839506172832,0,0)" xlink:href="#ab"/><use transform="matrix(0.06172839506172832,0,0,0.06172839506172832,12.345679012345665,0)" xlink:href="#am"/><use transform="matrix(0.06172839506172832,0,0,0.06172839506172832,24.69135802469133,0)" xlink:href="#ac"/><use transform="matrix(0.06172839506172832,0,0,0.06172839506172832,37.037037037036995,0)" xlink:href="#ab"/><use transform="matrix(0.06172839506172832,0,0,0.06172839506172832,49.38271604938266,0)" xlink:href="#ae"/><use transform="matrix(0.06172839506172832,0,0,0.06172839506172832,61.72839506172832,0)" xlink:href="#ak"/><use transform="matrix(0.06172839506172832,0,0,0.06172839506172832,69.07407407407399,0)" xlink:href="#Y"/></g><g id="A"><use transform="matrix(0.06172839506172832,0,0,0.06172839506172832,0,0)" xlink:href="#ab"/><use transform="matrix(0.06172839506172832,0,0,0.06172839506172832,12.345679012345665,0)" xlink:href="#aa"/><use transform="matrix(0.06172839506172832,0,0,0.06172839506172832,18.518518518518498,0)" xlink:href="#aj"/><use transform="matrix(0.06172839506172832,0,0,0.06172839506172832,30.86419753086416,0)" xlink:href="#X"/><use transform="matrix(0.06172839506172832,0,0,0.06172839506172832,43.20987654320982,0)" xlink:href="#ak"/></g><path fill="#552cff" d="M210-169c-67 3-38 105-44 169h-31v-121c0-29-5-50-35-48C34-165 62-65 56 0H25l-1-190h30c1 10-1 24 2 32 10-44 99-50 107 0 11-21 27-35 58-36 85-2 47 119 55 194h-31v-121c0-29-5-49-35-48" id="bb"/><path fill="#552cff" d="M179-190L93 31C79 59 56 82 12 73V49c39 6 53-20 64-50L1-190h34L92-34l54-156h33" id="bc"/><g id="B"><use transform="matrix(0.06172839506172832,0,0,0.06172839506172832,0,0)" xlink:href="#X"/><use transform="matrix(0.06172839506172832,0,0,0.06172839506172832,12.345679012345665,0)" xlink:href="#bb"/><use transform="matrix(0.06172839506172832,0,0,0.06172839506172832,30.802469135802433,0)" xlink:href="#al"/><use transform="matrix(0.06172839506172832,0,0,0.06172839506172832,43.148148148148096,0)" xlink:href="#ag"/><use transform="matrix(0.06172839506172832,0,0,0.06172839506172832,48.02469135802463,0)" xlink:href="#ab"/><use transform="matrix(0.06172839506172832,0,0,0.06172839506172832,60.370370370370296,0)" xlink:href="#bc"/><use transform="matrix(0.06172839506172832,0,0,0.06172839506172832,71.4814814814814,0)" xlink:href="#X"/><use transform="matrix(0.06172839506172832,0,0,0.06172839506172832,83.82716049382707,0)" xlink:href="#X"/><use transform="matrix(0.06172839506172832,0,0,0.06172839506172832,96.17283950617274,0)" xlink:href="#Z"/></g><path fill="#333" d="M238-95c0 69-44 99-111 99C63 4 22-25 22-93v-155h51v151c-1 38 19 59 55 60 90 1 49-130 58-211h52v153" id="bd"/><path fill="#333" d="M137-138c1-29-70-34-71-4 15 46 118 7 119 86 1 83-164 76-172 9l43-7c4 19 20 25 44 25 33 8 57-30 24-41C81-84 22-81 20-136c-2-80 154-74 161-7" id="be"/><path fill="#333" d="M185-48c-13 30-37 53-82 52C43 2 14-33 14-96s30-98 90-98c62 0 83 45 84 108H66c0 31 8 55 39 56 18 0 30-7 34-22zm-45-69c5-46-57-63-70-21-2 6-4 13-4 21h74" id="bf"/><g id="C"><use transform="matrix(0.04938271604938272,0,0,0.04938271604938272,0,0)" xlink:href="#bd"/><use transform="matrix(0.04938271604938272,0,0,0.04938271604938272,12.790123456790125,0)" xlink:href="#be"/><use transform="matrix(0.04938271604938272,0,0,0.04938271604938272,22.66666666666667,0)" xlink:href="#bf"/><use transform="matrix(0.04938271604938272,0,0,0.04938271604938272,32.543209876543216,0)" xlink:href="#be"/></g><path fill="#333" d="M723 20c-372 0-600-174-600-548v-881h295v858c-2 210 111 319 313 320 205 0 328-118 328-330v-848h295v866c-4 384-248 563-631 563" id="bg"/><path fill="#333" d="M954-315C949-74 761 20 508 20 299 20 173-36 49-135l127-193c105 75 179 138 332 138 101 0 184-12 188-103 0-62-44-88-92-105-99-30-269-62-350-106-94-47-166-128-164-270 6-234 178-325 422-328 182 1 322 58 414 156L782-780c-77-75-166-113-268-113-111 0-166 32-166 96 0 54 36 76 78 92 242 71 534 83 528 390" id="bh"/><path fill="#333" d="M606 20C262 18 76-184 80-543c2-346 179-559 510-559 359 0 510 263 473 635H375c1 166 76 276 246 274 145-4 205-54 301-118l114 182C912-40 811 20 606 20zm191-679c-4-150-65-238-209-238-138 0-209 91-211 238h420" id="bi"/><g id="D"><use transform="matrix(0.008680555555555556,0,0,0.008680555555555556,0,0)" xlink:href="#bg"/><use transform="matrix(0.008680555555555556,0,0,0.008680555555555556,12.838541666666668,0)" xlink:href="#bh"/><use transform="matrix(0.008680555555555556,0,0,0.008680555555555556,21.67534722222222,0)" xlink:href="#bi"/><use transform="matrix(0.008680555555555556,0,0,0.008680555555555556,31.5625,0)" xlink:href="#bh"/></g><path fill="#333" d="M403-1065c14 341 4 712 7 1065H137v-1409h357l583 1077c-16-341-5-721-8-1077h272V0H975" id="bj"/><path fill="#333" d="M512 20C206 20 84-227 84-541c0-321 134-561 448-561 144 0 256 68 308 170-4-182-1-369-2-553h280v1249c-1 76 4 178 8 236H854c-8-23-15-122-14-156h-4C781-44 670 20 512 20zm88-223c175 0 239-148 242-344 3-204-73-334-240-334-164 0-225 146-225 340 0 187 62 338 223 338" id="bk"/><g id="E"><use transform="matrix(0.008680555555555556,0,0,0.008680555555555556,0,0)" xlink:href="#bj"/><use transform="matrix(0.008680555555555556,0,0,0.008680555555555556,12.838541666666668,0)" xlink:href="#bi"/><use transform="matrix(0.008680555555555556,0,0,0.008680555555555556,22.725694444444446,0)" xlink:href="#bi"/><use transform="matrix(0.008680555555555556,0,0,0.008680555555555556,32.61284722222223,0)" xlink:href="#bk"/><use transform="matrix(0.008680555555555556,0,0,0.008680555555555556,43.56770833333334,0)" xlink:href="#bh"/></g><path fill="#333" d="M625-860c-139 0-201 131-201 280V0H143c-4-359 9-735-8-1081h268c6 29 14 157 13 194h4c60-130 146-215 315-217 167-2 268 80 301 217h6c66-141 145-212 328-217 235-2 323 180 324 418V0h-279v-606c-3-142-25-254-155-254-136 0-201 124-201 266V0H780v-606c-3-142-25-254-155-254" id="bl"/><path fill="#333" d="M418-152c12 183 4 386 6 578H143V-834c0-102-3-184-8-247h273c7 23 13 121 12 155h4c71-119 186-178 344-178 295 0 405 251 410 557 0 222-70 402-200 495-66 48-144 72-235 72-150-3-265-63-319-172h-6zm241-51c165 0 226-148 226-344 0-188-61-332-223-332-176 0-241 145-242 340 1 193 66 336 239 336" id="bm"/><path fill="#333" d="M422 14C235 18 133-86 133-262v-1223h281v1153c-1 82 15 123 96 121 16 0 33-2 51-6L571 0c-48 9-98 14-149 14" id="bn"/><path fill="#333" d="M621 20C276 20 80-202 80-543s197-559 547-559c358 0 544 210 544 559 0 345-199 563-550 563zm-3-223c183 0 261-142 259-340 1-194-68-336-246-336-181 0-257 141-256 336 3 188 67 340 243 340" id="bo"/><path fill="#333" d="M106 410l21-220c104 22 192 3 239-56 28-30 61-91 78-144L16-1081h299c91 271 186 536 269 819 74-291 164-546 247-819h297L700 57c-65 150-116 260-238 330-81 51-253 44-356 23" id="bp"/><g id="G"><use transform="matrix(0.008680555555555556,0,0,0.008680555555555556,0,0)" xlink:href="#bi"/><use transform="matrix(0.008680555555555556,0,0,0.008680555555555556,9.887152777777779,0)" xlink:href="#bl"/><use transform="matrix(0.008680555555555556,0,0,0.008680555555555556,25.694444444444446,0)" xlink:href="#bm"/><use transform="matrix(0.008680555555555556,0,0,0.008680555555555556,36.64930555555556,0)" xlink:href="#bn"/><use transform="matrix(0.008680555555555556,0,0,0.008680555555555556,41.875,0)" xlink:href="#bo"/><use transform="matrix(0.008680555555555556,0,0,0.008680555555555556,52.560763888888886,0)" xlink:href="#bp"/><use transform="matrix(0.008680555555555556,0,0,0.008680555555555556,62.27430555555555,0)" xlink:href="#bi"/><use transform="matrix(0.008680555555555556,0,0,0.008680555555555556,72.16145833333331,0)" xlink:href="#bi"/></g><path fill="#333" d="M8-1081h297c85 279 184 570 260 854 81-292 182-569 271-854h294L731 0H395" id="bq"/><path fill="#333" d="M401 20C193 17 70-97 66-305c-2-250 181-340 428-346l233-4c13-153-41-232-178-230-95 0-192 44-291 131L125-930c129-115 276-172 440-172 267-2 443 128 443 387 0 231-4 502 8 715H750c-5-47-7-98-7-152h-6C671-49 563 20 401 20zm88-213c158 0 250-112 238-288-168 10-369-30-369 153-1 85 49 135 131 135" id="br"/><path fill="#333" d="M285-1225c-97 1-159-61-158-157-1-97 61-159 158-158 94-1 157 63 155 158 2 93-63 159-155 157zm-142 144h281V0H143v-1081" id="bs"/><path fill="#333" d="M440 18C256 18 162-86 162-274v-598H25v-209h151l14-244 250-21v265h215v209H440v522c1 86 24 133 105 135 29 0 63-4 102-12l21 213C591 7 515 18 440 18" id="bt"/><path fill="#333" d="M662-862c-155 0-238 122-238 282V0H143c-4-359 9-735-8-1081h268c6 29 14 157 13 194h4c68-132 166-213 348-217 251-3 356 170 356 418V0H844v-606c-2-150-37-256-182-256" id="bu"/><g id="I"><use transform="matrix(0.008680555555555556,0,0,0.008680555555555556,0,0)" xlink:href="#bq"/><use transform="matrix(0.008680555555555556,0,0,0.008680555555555556,9.887152777777779,0)" xlink:href="#br"/><use transform="matrix(0.008680555555555556,0,0,0.008680555555555556,19.774305555555557,0)" xlink:href="#bn"/><use transform="matrix(0.008680555555555556,0,0,0.008680555555555556,25,0)" xlink:href="#bs"/><use transform="matrix(0.008680555555555556,0,0,0.008680555555555556,29.93923611111111,0)" xlink:href="#bk"/><use transform="matrix(0.008680555555555556,0,0,0.008680555555555556,40.89409722222222,0)" xlink:href="#br"/><use transform="matrix(0.008680555555555556,0,0,0.008680555555555556,50.78125,0)" xlink:href="#bt"/><use transform="matrix(0.008680555555555556,0,0,0.008680555555555556,56.788194444444436,0)" xlink:href="#bs"/><use transform="matrix(0.008680555555555556,0,0,0.008680555555555556,61.72743055555556,0)" xlink:href="#bo"/><use transform="matrix(0.008680555555555556,0,0,0.008680555555555556,72.58680555555556,0)" xlink:href="#bu"/></g><path fill="#4c535d" d="M67-125c0 53 21 87 73 88 37 1 54-22 65-47l45 17C233-25 199 4 140 4 58 4 20-42 15-125 8-235 124-281 211-232c18 10 29 29 36 50l-46 12c-8-25-30-41-62-41-52 0-71 34-72 86" id="bv"/><path fill="#4c535d" d="M110-194c64 0 96 36 96 99 0 64-35 99-97 99-61 0-95-36-95-99 0-62 34-99 96-99zm-1 164c35 0 45-28 45-65 0-40-10-65-43-65-34 0-45 26-45 65 0 36 10 65 43 65" id="bw"/><path fill="#4c535d" d="M135-194c87-1 58 113 63 194h-50c-7-57 23-157-34-157-59 0-34 97-39 157H25l-1-190h47c2 12-1 28 3 38 12-26 28-41 61-42" id="bx"/><path fill="#4c535d" d="M115-3C79 11 28 4 28-45v-112H4v-33h27l15-45h31v45h36v33H77v99c-1 23 16 31 38 25v30" id="by"/><path fill="#4c535d" d="M185-48c-13 30-37 53-82 52C43 2 14-33 14-96s30-98 90-98c62 0 83 45 84 108H66c0 31 8 55 39 56 18 0 30-7 34-22zm-45-69c5-46-57-63-70-21-2 6-4 13-4 21h74" id="bz"/><path fill="#4c535d" d="M144 0l-44-69L55 0H2l70-98-66-92h53l41 62 40-62h54l-67 91 71 99h-54" id="bA"/><g id="J"><use transform="matrix(0.12345679012345674,0,0,0.12345679012345674,0,0)" xlink:href="#bv"/><use transform="matrix(0.12345679012345674,0,0,0.12345679012345674,31.975308641975296,0)" xlink:href="#bw"/><use transform="matrix(0.12345679012345674,0,0,0.12345679012345674,59.01234567901233,0)" xlink:href="#bx"/><use transform="matrix(0.12345679012345674,0,0,0.12345679012345674,86.04938271604935,0)" xlink:href="#by"/><use transform="matrix(0.12345679012345674,0,0,0.12345679012345674,100.7407407407407,0)" xlink:href="#bz"/><use transform="matrix(0.12345679012345674,0,0,0.12345679012345674,125.43209876543204,0)" xlink:href="#bA"/><use transform="matrix(0.12345679012345674,0,0,0.12345679012345674,150.12345679012338,0)" xlink:href="#by"/></g></defs></g></svg>